<svg xmlns="http://www.w3.org/2000/svg" version="1.1" xmlns:xlink="http://www.w3.org/1999/xlink" xmlns:svgjs="http://svgjs.com/svgjs" id="BgenPttrnSvgRootPreview" width="100%" height="100%"><defs><pattern x="0" y="0" width="1" height="1" patternUnits="userSpaceOnUse" id="BgenPttrnLayer1"><g id="PatternRootContent1"><g id="BgenPttrnLayer1background"><rect width="1" height="1" id="BgenPttrnBackground1" class="color_1 fill_color_1" fill="#e8e8e8"></rect></g></g></pattern><pattern x="0" y="0" width="74" height="186" patternUnits="userSpaceOnUse" id="BgenPttrnLayer2" patternTransform="matrix(1.0040916292848976,1.0040916292848974,-1.0040916292848974,1.0040916292848976,0,0)"><g id="PatternRootContent2"><g id="BgenPttrnLayer2Element2"><use xlink:href="#BgenPttrnElement2" x="47.15036519368489" y="-69.68102645874023" transform="translate(86.33333333333333, -31) scale(1) translate(-86.33333333333333, 31) rotate(90, 86.33333333333333, -31)"></use><use xlink:href="#BgenPttrnElement2" x="-26.849634806315102" y="-69.68102645874023" transform="translate(12.333333333333336, -31) scale(1) translate(-12.333333333333336, 31) rotate(90, 12.333333333333336, -31)"></use><use xlink:href="#BgenPttrnElement2" x="-2.1829681396484375" y="-7.681026458740234" transform="translate(37, 31) scale(1) translate(-37, -31) rotate(90, 37, 31)"></use><use xlink:href="#BgenPttrnElement2" x="-76.18296813964844" y="-7.681026458740234" transform="translate(-37, 31) scale(1) translate(37, -31) rotate(90, -37, 31)"></use><use xlink:href="#BgenPttrnElement2" x="71.81703186035156" y="-7.681026458740234" transform="translate(111, 31) scale(1) translate(-111, -31) rotate(90, 111, 31)"></use><use xlink:href="#BgenPttrnElement2" x="22.483698527018227" y="54.318973541259766" transform="translate(61.666666666666664, 93) scale(1) translate(-61.666666666666664, -93) rotate(90, 61.666666666666664, 93)"></use><use xlink:href="#BgenPttrnElement2" x="-51.516301472981766" y="54.318973541259766" transform="translate(-12.333333333333329, 93) scale(1) translate(12.333333333333329, -93) rotate(90, -12.333333333333329, 93)"></use><use xlink:href="#BgenPttrnElement2" x="47.15036519368489" y="116.31897354125977" transform="translate(86.33333333333333, 155) scale(1) translate(-86.33333333333333, -155) rotate(90, 86.33333333333333, 155)"></use><use xlink:href="#BgenPttrnElement2" x="-26.849634806315102" y="116.31897354125977" transform="translate(12.333333333333336, 155) scale(1) translate(-12.333333333333336, -155) rotate(90, 12.333333333333336, 155)"></use><use xlink:href="#BgenPttrnElement2" x="-2.1829681396484375" y="178.31897354125977" transform="translate(37, 217) scale(1) translate(-37, -217) rotate(90, 37, 217)"></use><use xlink:href="#BgenPttrnElement2" x="-2.1829681396484375" y="178.31897354125977" transform="translate(37, 217) scale(1) translate(-37, -217) rotate(90, 37, 217)"></use></g></g></pattern><symbol id="BgenPttrnElement2"><g class="color_3 fill_color_3" fill="#dde0ce"><path d="M40.794,33.162967681884766l-1.124,-1.124l0,-0.778C42.661,31.042,45.581,29.791,47.865,27.506113052368164c5.077,-5.077,5.077,-13.308,0,-18.385S34.558,4.045,29.481,9.121335983276367s-5.077,13.308,0,18.385c2.284,2.284,5.204,3.536,8.188,3.762l0,0.778L36.552,33.162967681884766l0.014,14.128L40.78,47.29096221923828L40.794,33.162967681884766Zm-8.485,-8.485c-3.514,-3.514,-3.514,-9.214,0,-12.728s9.214,-3.514,12.728,0s3.514,9.214,0,12.728s-9.214,3.514,-12.728,0Z" transform="matrix(1,0,0,1,0,0)"></path><path d="M48.779,52.574275970458984l1.536,-0.412l0.674,0.389C49.683,55.252,49.306,58.407,50.142,61.52642822265625c1.859,6.935,8.987,11.051,15.922,9.192S77.115,61.733,75.256,54.79713439941406s-8.986,-11.051,-15.921,-9.192c-3.12,0.836,-5.664,2.739,-7.352,5.21l-0.674,-0.389L50.9,48.90004348754883l-12.242,-7.052L36.551,45.49803161621094L48.779,52.574275970458984Zm11.591,-3.106c4.801,-1.286,9.736,1.563,11.023,6.364s-1.563,9.736,-6.364,11.023s-9.736,-1.563,-11.023,-6.364s1.563,-9.736,6.364,-11.023Z" transform="matrix(1,0,0,1,0,0)"></path><path d="M27.976,49.783390045166016l-0.412,1.536l-0.674,0.389C25.205,49.228,22.661,47.325,19.541,46.48809051513672c-6.935,-1.858,-14.063,2.257,-15.921,9.192S5.877,69.744,12.812,71.60216522216797s14.063,-2.257,15.922,-9.192c0.836,-3.12,0.46,-6.275,-0.836,-8.972l0.674,-0.389L30.097,53.45762252807617l12.228,-7.076L40.218,42.73163986206055L27.976,49.783390045166016Zm-3.106,11.591c-1.286,4.801,-6.222,7.65,-11.023,6.364s-7.65,-6.222,-6.364,-11.023s6.222,-7.65,11.023,-6.364s7.65,6.222,6.364,11.023Z" transform="matrix(1,0,0,1,0,0)"></path></g></symbol></defs><rect width="100%" height="100%" id="BgenPttrnRctLayer1" fill="url(#BgenPttrnLayer1)"></rect><rect width="100%" height="100%" id="BgenPttrnRctLayer2" fill="url(#BgenPttrnLayer2)"></rect></svg>